<?xml version="1.0" encoding="UTF-8" standalone="no"?>
<!-- Created with Inkscape (http://www.inkscape.org/) -->

<svg
   xmlns:dc="http://purl.org/dc/elements/1.1/"
   xmlns:cc="http://creativecommons.org/ns#"
   xmlns:rdf="http://www.w3.org/1999/02/22-rdf-syntax-ns#"
   xmlns:svg="http://www.w3.org/2000/svg"
   xmlns="http://www.w3.org/2000/svg"
   version="1.1"
   width="31.3002"
   height="29.1126"
   viewBox="0 0 31.3002 29.1126"
   id="svg3061"
   xml:space="preserve"><metadata
   id="metadata3082"><rdf:RDF><cc:Work
       rdf:about=""><dc:format>image/svg+xml</dc:format><dc:type
         rdf:resource="http://purl.org/dc/dcmitype/StillImage" /><dc:title></dc:title></cc:Work></rdf:RDF></metadata><defs
   id="defs3080" />
<g
   transform="translate(-69.3499,-70.4437)"
   id="BNackground"
   style="display:none">
</g>
<g
   transform="matrix(0.3,0,0,0.3,-9.8499,-10.9437)"
   id="Layer_1"
   style="fill:#ffffff">
	<g
   id="g3065"
   style="fill:#ffffff">
		<polygon
   points="63.524,36.479 32.833,56.518 54.054,73.512 85,54.403 "
   id="polygon3067"
   style="fill:#ffffff" />
		<polygon
   points="32.833,90.507 63.524,110.546 85,92.62 54.054,73.512 "
   id="polygon3069"
   style="fill:#ffffff" />
		<polygon
   points="85,92.62 106.476,110.546 137.167,90.507 115.946,73.512 "
   id="polygon3071"
   style="fill:#ffffff" />
		<polygon
   points="137.167,56.518 106.476,36.479 85,54.403 115.946,73.512 "
   id="polygon3073"
   style="fill:#ffffff" />
		<polygon
   points="85.063,96.477 63.524,114.35 54.307,108.332 54.307,115.078 85.063,133.521 115.819,115.078 115.819,108.332 106.602,114.35 "
   id="polygon3075"
   style="fill:#ffffff" />
	</g>
</g>
<g
   transform="translate(-69.3499,-70.4437)"
   id="Layer_2">
</g>
</svg>