<?xml version="1.0" encoding="UTF-8" standalone="no"?>
<!-- Created with Inkscape (http://www.inkscape.org/) -->

<svg
   xmlns:dc="http://purl.org/dc/elements/1.1/"
   xmlns:cc="http://creativecommons.org/ns#"
   xmlns:rdf="http://www.w3.org/1999/02/22-rdf-syntax-ns#"
   xmlns:svg="http://www.w3.org/2000/svg"
   xmlns="http://www.w3.org/2000/svg"
   version="1.1"
   width="32"
   height="32"
   viewBox="0 0 412 430"
   id="Layer_1"
   xml:space="preserve"><metadata
   id="metadata29"><rdf:RDF><cc:Work
       rdf:about=""><dc:format>image/svg+xml</dc:format><dc:type
         rdf:resource="http://purl.org/dc/dcmitype/StillImage" /><dc:title></dc:title></cc:Work></rdf:RDF></metadata><defs
   id="defs27" />
<path
   d="m 401.86612,255.96399 h -95.93857 l -41.06181,-68.27331 h 24.38555 c 9.82453,0 16.79346,-8.60789 16.79346,-17.99138 V 67.767258 c 0,-9.383484 -6.96893,-16.623185 -16.79346,-16.623185 H 123.28897 c -9.82739,0 -17.33657,7.239701 -17.33657,16.623185 V 169.6993 c 0,9.38349 7.51204,17.99138 17.33657,17.99138 h 25.04585 l -41.07039,68.27331 H 10.67127 c -9.82453425,0 -19.057367,6.28661 -19.057367,15.66736 v 90.59867 c 0,9.38894 9.23283275,16.62591 19.057367,16.62591 h 165.96232 c 9.8274,0 17.93114,-7.23424 17.93114,-16.62591 v -90.59867 c 0,-9.38349 -8.1066,-15.66736 -17.93114,-15.66736 h -32.45498 l 41.06753,-68.27331 h 42.71114 l 41.06181,68.27331 h -33.11814 c -9.8131,0 -18.46853,6.28661 -18.46853,15.66736 v 90.59867 c 0,9.38894 8.65543,16.62591 18.46853,16.62591 h 165.96803 c 9.82453,0 18.51712,-7.23424 18.51712,-16.62591 v -90.59867 c -0.003,-9.38075 -8.69545,-15.66736 -18.51998,-15.66736 z"
   id="path3"
   style="fill:#ffffff" />










</svg>